<svg width="233" height="18" viewBox="0 0 233 18" fill="none" xmlns="http://www.w3.org/2000/svg">
<path d="M6.024 17.448L-4.73857e-06 0.527997H3.816L8.208 13.584H7.176L11.808 0.527997H14.496L18.936 13.584H18.048L22.512 0.527997H26.112L20.04 17.448H17.016L12.768 5.424H13.344L9.048 17.448H6.024ZM27.8668 17.448V0.527997H31.4908V7.872H31.1548C31.5228 7.088 32.0668 6.488 32.7868 6.072C33.5228 5.64 34.3548 5.424 35.2828 5.424C36.2268 5.424 37.0028 5.608 37.6108 5.976C38.2188 6.328 38.6748 6.872 38.9788 7.608C39.2828 8.328 39.4348 9.248 39.4348 10.368V17.448H35.8108V10.536C35.8108 9.992 35.7388 9.552 35.5948 9.216C35.4668 8.864 35.2668 8.616 34.9948 8.472C34.7388 8.312 34.4108 8.232 34.0108 8.232C33.4988 8.232 33.0508 8.344 32.6668 8.568C32.2988 8.776 32.0108 9.08 31.8028 9.48C31.5948 9.88 31.4908 10.344 31.4908 10.872V17.448H27.8668ZM48.2602 17.712C46.8682 17.712 45.6682 17.464 44.6602 16.968C43.6682 16.456 42.9002 15.744 42.3562 14.832C41.8282 13.904 41.5642 12.816 41.5642 11.568C41.5642 10.352 41.8202 9.288 42.3322 8.376C42.8442 7.448 43.5562 6.728 44.4682 6.216C45.3962 5.688 46.4442 5.424 47.6122 5.424C48.7642 5.424 49.7562 5.672 50.5882 6.168C51.4202 6.648 52.0602 7.336 52.5082 8.232C52.9722 9.128 53.2042 10.192 53.2042 11.424V12.336H44.5402V10.464H50.5882L50.2042 10.8C50.2042 9.824 49.9882 9.088 49.5562 8.592C49.1402 8.08 48.5402 7.824 47.7562 7.824C47.1642 7.824 46.6602 7.96 46.2442 8.232C45.8282 8.504 45.5082 8.896 45.2842 9.408C45.0602 9.92 44.9482 10.536 44.9482 11.256V11.448C44.9482 12.264 45.0682 12.936 45.3082 13.464C45.5642 13.976 45.9402 14.36 46.4362 14.616C46.9482 14.872 47.5802 15 48.3322 15C48.9722 15 49.6202 14.904 50.2762 14.712C50.9322 14.52 51.5242 14.224 52.0522 13.824L53.0122 16.248C52.4202 16.696 51.6922 17.056 50.8282 17.328C49.9802 17.584 49.1242 17.712 48.2602 17.712ZM55.3121 17.448V5.664H58.8641V8.544H58.6241C58.8161 7.584 59.2321 6.848 59.8721 6.336C60.5281 5.808 61.3921 5.504 62.4641 5.424L63.5201 5.352L63.7361 8.4L61.6961 8.616C60.7841 8.696 60.1041 8.96 59.6561 9.408C59.2241 9.856 59.0081 10.504 59.0081 11.352V17.448H55.3121ZM71.1118 17.712C69.7198 17.712 68.5198 17.464 67.5118 16.968C66.5198 16.456 65.7518 15.744 65.2078 14.832C64.6798 13.904 64.4158 12.816 64.4158 11.568C64.4158 10.352 64.6718 9.288 65.1838 8.376C65.6958 7.448 66.4078 6.728 67.3198 6.216C68.2478 5.688 69.2958 5.424 70.4638 5.424C71.6158 5.424 72.6078 5.672 73.4398 6.168C74.2718 6.648 74.9118 7.336 75.3598 8.232C75.8238 9.128 76.0558 10.192 76.0558 11.424V12.336H67.3918V10.464H73.4398L73.0558 10.8C73.0558 9.824 72.8398 9.088 72.4078 8.592C71.9918 8.08 71.3918 7.824 70.6078 7.824C70.0158 7.824 69.5118 7.96 69.0958 8.232C68.6798 8.504 68.3598 8.896 68.1358 9.408C67.9118 9.92 67.7998 10.536 67.7998 11.256V11.448C67.7998 12.264 67.9198 12.936 68.1598 13.464C68.4158 13.976 68.7918 14.36 69.2878 14.616C69.7998 14.872 70.4318 15 71.1838 15C71.8238 15 72.4718 14.904 73.1278 14.712C73.7838 14.52 74.3758 14.224 74.9038 13.824L75.8638 16.248C75.2718 16.696 74.5438 17.056 73.6798 17.328C72.8318 17.584 71.9758 17.712 71.1118 17.712ZM84.6994 3.384V-3.33786e-06H88.6114V3.384H84.6994ZM84.8434 17.448V5.664H88.4674V17.448H84.8434ZM91.2652 17.448V5.664H94.8172V7.872H94.5532C94.9212 7.088 95.4652 6.488 96.1852 6.072C96.9212 5.64 97.7532 5.424 98.6812 5.424C99.6252 5.424 100.401 5.608 101.009 5.976C101.617 6.328 102.073 6.872 102.377 7.608C102.681 8.328 102.833 9.248 102.833 10.368V17.448H99.2092V10.536C99.2092 9.992 99.1372 9.552 98.9932 9.216C98.8652 8.864 98.6652 8.616 98.3932 8.472C98.1372 8.312 97.8092 8.232 97.4092 8.232C96.8972 8.232 96.4492 8.344 96.0652 8.568C95.6972 8.776 95.4092 9.08 95.2012 9.48C94.9932 9.88 94.8892 10.344 94.8892 10.872V17.448H91.2652ZM118.002 17.712C116.322 17.712 115.074 17.304 114.258 16.488C113.442 15.672 113.034 14.472 113.034 12.888V8.376H110.802V5.664H113.034V2.208H116.658V5.664H120.138V8.376H116.658V12.744C116.658 13.416 116.81 13.92 117.114 14.256C117.434 14.592 117.938 14.76 118.626 14.76C118.834 14.76 119.05 14.736 119.274 14.688C119.514 14.64 119.77 14.576 120.042 14.496L120.57 17.136C120.234 17.312 119.834 17.448 119.37 17.544C118.906 17.656 118.45 17.712 118.002 17.712ZM121.921 17.448V0.527997H125.545V7.872H125.209C125.577 7.088 126.121 6.488 126.841 6.072C127.577 5.64 128.409 5.424 129.337 5.424C130.281 5.424 131.057 5.608 131.665 5.976C132.273 6.328 132.729 6.872 133.033 7.608C133.337 8.328 133.489 9.248 133.489 10.368V17.448H129.865V10.536C129.865 9.992 129.793 9.552 129.649 9.216C129.521 8.864 129.321 8.616 129.049 8.472C128.793 8.312 128.465 8.232 128.065 8.232C127.553 8.232 127.105 8.344 126.721 8.568C126.353 8.776 126.065 9.08 125.857 9.48C125.649 9.88 125.545 10.344 125.545 10.872V17.448H121.921ZM142.315 17.712C140.923 17.712 139.723 17.464 138.715 16.968C137.723 16.456 136.955 15.744 136.411 14.832C135.883 13.904 135.619 12.816 135.619 11.568C135.619 10.352 135.875 9.288 136.387 8.376C136.899 7.448 137.611 6.728 138.523 6.216C139.451 5.688 140.499 5.424 141.667 5.424C142.819 5.424 143.811 5.672 144.643 6.168C145.475 6.648 146.115 7.336 146.563 8.232C147.027 9.128 147.259 10.192 147.259 11.424V12.336H138.595V10.464H144.643L144.259 10.8C144.259 9.824 144.043 9.088 143.611 8.592C143.195 8.08 142.595 7.824 141.811 7.824C141.219 7.824 140.715 7.96 140.299 8.232C139.883 8.504 139.563 8.896 139.339 9.408C139.115 9.92 139.003 10.536 139.003 11.256V11.448C139.003 12.264 139.123 12.936 139.363 13.464C139.619 13.976 139.995 14.36 140.491 14.616C141.003 14.872 141.635 15 142.387 15C143.027 15 143.675 14.904 144.331 14.712C144.987 14.52 145.579 14.224 146.107 13.824L147.067 16.248C146.475 16.696 145.747 17.056 144.883 17.328C144.035 17.584 143.179 17.712 142.315 17.712ZM159.382 17.448L154.582 5.664H158.254L161.35 13.944H160.798L163.87 5.664H166.27L169.318 13.944H168.862L171.886 5.664H175.366L170.614 17.448H167.542L164.158 8.712H165.718L162.43 17.448H159.382ZM182.101 17.712C180.837 17.712 179.733 17.464 178.789 16.968C177.861 16.472 177.141 15.76 176.629 14.832C176.117 13.904 175.861 12.808 175.861 11.544C175.861 10.28 176.117 9.192 176.629 8.28C177.141 7.368 177.861 6.664 178.789 6.168C179.733 5.672 180.837 5.424 182.101 5.424C183.365 5.424 184.461 5.672 185.389 6.168C186.333 6.664 187.061 7.376 187.573 8.304C188.101 9.216 188.365 10.296 188.365 11.544C188.365 12.808 188.101 13.904 187.573 14.832C187.061 15.76 186.333 16.472 185.389 16.968C184.461 17.464 183.365 17.712 182.101 17.712ZM182.101 15C182.885 15 183.517 14.72 183.997 14.16C184.477 13.584 184.717 12.712 184.717 11.544C184.717 10.376 184.477 9.52 183.997 8.976C183.517 8.416 182.885 8.136 182.101 8.136C181.333 8.136 180.709 8.416 180.229 8.976C179.749 9.52 179.509 10.376 179.509 11.544C179.509 12.712 179.749 13.584 180.229 14.16C180.709 14.72 181.333 15 182.101 15ZM190.57 17.448V5.664H194.122V8.544H193.882C194.074 7.584 194.49 6.848 195.13 6.336C195.786 5.808 196.65 5.504 197.722 5.424L198.778 5.352L198.994 8.4L196.954 8.616C196.042 8.696 195.362 8.96 194.914 9.408C194.482 9.856 194.266 10.504 194.266 11.352V17.448H190.57ZM204.853 17.712C203.333 17.712 202.221 17.32 201.517 16.536C200.813 15.736 200.461 14.552 200.461 12.984V0.527997H204.085V12.84C204.085 13.24 204.149 13.592 204.277 13.896C204.405 14.184 204.589 14.4 204.829 14.544C205.085 14.688 205.405 14.76 205.789 14.76C205.949 14.76 206.117 14.752 206.293 14.736C206.469 14.72 206.637 14.688 206.797 14.64L206.749 17.448C206.445 17.528 206.133 17.592 205.813 17.64C205.509 17.688 205.189 17.712 204.853 17.712ZM212.92 17.712C211.896 17.712 210.992 17.464 210.208 16.968C209.44 16.472 208.84 15.76 208.408 14.832C207.976 13.904 207.76 12.808 207.76 11.544C207.76 10.28 207.976 9.192 208.408 8.28C208.84 7.368 209.44 6.664 210.208 6.168C210.992 5.672 211.896 5.424 212.92 5.424C213.848 5.424 214.664 5.648 215.368 6.096C216.088 6.544 216.576 7.128 216.832 7.848H216.568V0.527997H220.192V17.448H216.64V15.12H216.856C216.632 15.904 216.152 16.536 215.416 17.016C214.696 17.48 213.864 17.712 212.92 17.712ZM214 15C214.784 15 215.416 14.72 215.896 14.16C216.376 13.584 216.616 12.712 216.616 11.544C216.616 10.376 216.376 9.52 215.896 8.976C215.416 8.416 214.784 8.136 214 8.136C213.232 8.136 212.608 8.416 212.128 8.976C211.648 9.52 211.408 10.376 211.408 11.544C211.408 12.712 211.648 13.584 212.128 14.16C212.608 14.72 213.232 15 214 15ZM226.008 12.096V10.968C226.008 10.504 226.064 10.064 226.176 9.648C226.288 9.216 226.464 8.792 226.704 8.376C226.96 7.96 227.296 7.536 227.712 7.104C228 6.768 228.232 6.48 228.408 6.24C228.6 5.984 228.728 5.744 228.792 5.52C228.872 5.28 228.912 5.04 228.912 4.8C228.912 4.496 228.84 4.24 228.696 4.032C228.552 3.824 228.336 3.664 228.048 3.552C227.76 3.424 227.416 3.36 227.016 3.36C226.264 3.36 225.536 3.496 224.832 3.768C224.144 4.04 223.472 4.44 222.816 4.968L221.64 2.232C222.104 1.816 222.64 1.464 223.248 1.176C223.872 0.887997 224.528 0.663997 225.216 0.503997C225.904 0.343997 226.592 0.263998 227.28 0.263998C228.336 0.263998 229.264 0.439998 230.064 0.791998C230.864 1.144 231.48 1.624 231.912 2.232C232.36 2.84 232.584 3.552 232.584 4.368C232.584 4.864 232.512 5.328 232.368 5.76C232.224 6.192 231.992 6.624 231.672 7.056C231.352 7.472 230.912 7.912 230.352 8.376C229.856 8.792 229.464 9.176 229.176 9.528C228.888 9.864 228.68 10.184 228.552 10.488C228.424 10.776 228.336 11.064 228.288 11.352L228.168 12.096H226.008ZM225.144 17.448V13.608H229.032V17.448H225.144Z" fill="#111517"/>
</svg>
